<svg xmlns="http://www.w3.org/2000/svg" xmlns:xlink="http://www.w3.org/1999/xlink" width="0" height="0" style="display:none;"><symbol id="storyline-icons-storyline"><path fill="rgb(0,0,0)" stroke="rgb(0,0,0)" stroke-width="1" opacity="0.00784313725490196" d="M 0 0 L 241 0.5 Q 227.7 2.7 222 12.5 L 217 25.5 L 217 447 L 833 447 L 833 173.5 L 831.5 174 L 828.5 175 L 683.5 175 Q 669.4 172.1 663 161.5 L 658 147.5 L 658 5.5 L 660 0 L 685 0.5 L 682 2 L 679 9.5 L 679 145.5 L 684.5 153 L 686.5 154 L 824.5 154 L 828 153 L 832 146.5 L 832 139.5 L 694.5 1 L 693 0.5 L 1080 0 L 1080 1079.5 L 1079.5 1080 L 821.5 1080 L 821.5 1079 L 827.5 1079 L 840.5 1076 L 864.5 1066 Q 883.3 1054.8 897 1038.5 Q 909 1024 916 1004.5 L 919 994.5 L 921 984.5 L 921 976.5 L 922 975.5 L 922 625 L 129 625 L 129 981.5 L 132 997.5 L 142 1022.5 Q 152.3 1041.7 168.5 1055 Q 181.5 1066 198.5 1073 L 215.5 1078 L 227 1079.5 L 0 1080 L 0 0 Z M 1005 333 L 989 337 L 978 344 Q 966 354 962 373 L 962 388 L 964 396 L 971 409 Q 980 422 998 425 L 998 523 L 998 523 L 975 523 L 975 496 L 973 490 L 967 485 L 909 485 Q 911 477 907 473 L 900 468 L 149 468 L 144 471 L 139 478 L 139 498 L 112 498 L 112 483 L 110 479 L 106 475 L 34 475 L 30 477 L 25 485 L 25 588 L 28 594 L 35 597 L 105 597 L 107 596 L 112 589 L 112 576 L 139 576 L 139 595 L 141 599 L 148 603 L 903 603 L 905 602 Q 911 599 909 589 L 964 589 L 970 587 L 975 578 L 975 544 L 1012 544 L 1014 543 L 1019 536 L 1019 426 L 1038 416 L 1049 403 L 1053 394 L 1055 384 L 1054 370 L 1046 353 Q 1038 341 1025 336 L 1013 333 L 1005 333 Z "></path><path fill="rgb(0,0,0)" stroke="rgb(0,0,0)" stroke-width="1" opacity="0.00784313725490196" d="M 399.5 274 L 638.5 274 L 646 278.5 L 648 284.5 L 647 288.5 L 643.5 293 L 640.5 295 L 398.5 295 L 391 288.5 L 390 283.5 Q 391.4 277.4 396.5 275 L 399.5 274 Z "></path><path fill="rgb(0,0,0)" stroke="rgb(0,0,0)" stroke-width="1" opacity="0.00784313725490196" d="M 399.5 350 L 638.5 350 L 646 354.5 L 648 361.5 L 645 369 L 640.5 371 L 397.5 371 L 392 366.5 L 390 359.5 Q 391.4 353.4 396.5 351 L 399.5 350 Z "></path><path fill="rgb(0,0,0)" stroke="rgb(0,0,0)" stroke-width="1" opacity="0.00784313725490196" d="M 213.5 658 L 834.5 658 L 848.5 662 L 861 672.5 L 866 680.5 L 869 691.5 L 869 1014.5 Q 866.1 1028.1 857.5 1036 Q 850.3 1043.3 838.5 1046 L 210.5 1046 Q 194.3 1042.2 186 1030.5 L 182 1023.5 L 179 1011.5 L 179 691.5 Q 182 675.5 192.5 667 Q 200.6 660.1 213.5 658 Z M 217 679 L 209 682 Q 202 686 200 696 L 200 1009 L 201 1014 L 205 1020 L 214 1025 L 836 1025 L 842 1022 L 848 1012 L 848 694 L 846 688 L 840 681 L 833 679 L 217 679 Z "></path><path fill="rgb(0,0,0)" stroke="rgb(0,0,0)" stroke-width="1" opacity="0.00784313725490196" d="M 295.5 698 L 303.5 698 L 315.5 701 Q 329.4 706.1 337 717.5 Q 346.9 729.6 346 752.5 Q 342 773.5 327.5 784 L 314.5 791 L 306.5 793 L 292.5 793 Q 272.7 789.3 263 775.5 L 254 757.5 L 253 740.5 Q 257.1 717.1 273.5 706 L 283.5 701 L 295.5 698 Z M 298 719 L 286 724 Q 277 731 274 743 Q 273 757 281 764 Q 286 770 296 772 L 305 772 L 314 768 Q 323 762 325 750 Q 325 735 318 728 L 310 721 L 298 719 Z "></path><path fill="rgb(0,0,0)" stroke="rgb(0,0,0)" stroke-width="1" opacity="0.00784313725490196" d="M 413.5 698 L 427.5 699 L 436.5 702 Q 448.1 707.4 455 717.5 Q 465.1 729.9 464 753.5 Q 459.6 773.6 445.5 784 Q 433.9 794.4 410.5 793 Q 391.1 788.9 381 775.5 Q 370.4 764.1 371 741.5 L 373 731.5 L 378 720.5 L 390.5 707 L 401.5 701 L 413.5 698 Z M 416 719 L 408 721 L 402 725 L 396 732 L 392 744 Q 392 755 397 762 Q 402 769 413 772 L 422 772 Q 430 770 435 765 Q 440 759 443 751 Q 444 736 437 730 Q 432 723 425 720 L 416 719 Z "></path><path fill="rgb(0,0,0)" stroke="rgb(0,0,0)" stroke-width="1" opacity="0.00784313725490196" d="M 529.5 698 L 543.5 699 L 552.5 702 L 567 712 Q 573.9 719.9 578 731.5 L 580 740.5 L 580 753.5 Q 575.6 773.6 561.5 784 Q 549.9 794.4 526.5 793 Q 507.1 788.9 497 775.5 Q 486.4 764.1 487 741.5 L 489 731.5 L 494 720.5 L 506.5 707 L 517.5 701 L 529.5 698 Z M 532 719 L 520 724 Q 511 731 508 744 Q 508 754 512 760 Q 518 769 530 772 L 539 772 L 548 768 Q 556 762 559 751 Q 560 736 553 729 Q 547 719 532 719 Z "></path><path fill="rgb(0,0,0)" stroke="rgb(0,0,0)" stroke-width="1" opacity="0.00784313725490196" d="M 647.5 698 Q 673.3 698.2 685 712.5 Q 693.6 720.9 697 734.5 L 698 753.5 Q 694 774 679.5 784 Q 668.2 794.7 644.5 793 Q 625.9 789.1 616 776.5 L 607 760.5 L 605 742.5 L 607 732.5 L 611 722.5 L 624.5 707 L 635.5 701 L 647.5 698 Z M 650 719 L 639 723 L 629 734 L 626 745 L 627 754 L 631 762 Q 636 769 647 772 L 656 772 L 668 766 Q 675 761 677 751 Q 678 737 672 731 Q 666 720 650 719 Z "></path><path fill="rgb(0,0,0)" stroke="rgb(0,0,0)" stroke-width="1" opacity="0.00784313725490196" d="M 763.5 698 Q 793.6 697.9 805 716.5 L 813 733.5 L 814 754.5 Q 810.3 774.3 796.5 784 Q 784.6 794.6 760.5 793 Q 741.9 789.1 732 776.5 Q 721.3 765.2 721 743.5 L 723 732.5 L 727 722.5 L 740.5 707 L 751.5 701 L 763.5 698 Z M 766 719 L 752 726 L 743 740 Q 741 754 747 761 Q 753 769 764 772 L 773 772 Q 781 770 786 765 Q 791 760 793 752 L 793 742 L 788 730 Q 783 723 776 720 L 766 719 Z "></path><path fill="rgb(0,0,0)" stroke="rgb(0,0,0)" stroke-width="1" opacity="0.00784313725490196" d="M 274.5 812 L 287.5 812 L 295.5 814 Q 307.5 818 315 826.5 Q 328.1 838.4 327 864.5 Q 323 884.5 309.5 895 Q 297.8 905.8 274.5 905 Q 254.5 901 244 887.5 Q 233.2 875.8 234 852.5 Q 237.2 833.2 249.5 823 Q 259 814.5 274.5 812 Z M 278 833 L 265 838 Q 257 843 255 855 Q 255 867 260 874 Q 265 882 277 884 L 284 884 L 295 880 Q 304 874 306 862 Q 307 848 300 842 Q 296 836 289 834 L 278 833 Z "></path><path fill="rgb(0,0,0)" stroke="rgb(0,0,0)" stroke-width="1" opacity="0.00784313725490196" d="M 391.5 812 L 405.5 812 L 416.5 815 Q 427.2 819.3 434 827.5 Q 440.8 835.2 444 846.5 L 445 864.5 Q 441 884.5 427.5 895 L 409.5 904 L 392.5 905 Q 372.1 901.4 361 888.5 Q 349.2 876.8 350 852.5 Q 353.5 831 368.5 821 L 382.5 814 L 391.5 812 Z M 396 833 Q 386 834 381 839 Q 373 844 371 855 Q 371 866 376 873 Q 383 881 395 884 L 402 884 L 412 880 Q 421 874 424 863 L 424 855 L 420 845 Q 413 833 396 833 Z "></path><path fill="rgb(0,0,0)" stroke="rgb(0,0,0)" stroke-width="1" opacity="0.00784313725490196" d="M 508.5 812 L 521.5 812 L 532.5 815 Q 543.9 819.6 551 828.5 L 560 846.5 L 561 864.5 Q 557.2 884.7 543.5 895 L 525.5 904 L 508.5 905 Q 489.3 901.3 479 888.5 L 470 872.5 L 468 862.5 L 468 853.5 L 472 838.5 L 482.5 824 Q 492.1 814.6 508.5 812 Z M 512 833 L 507 834 L 498 839 Q 491 845 489 856 Q 489 868 495 875 Q 500 882 512 884 L 519 884 L 529 880 Q 537 874 540 863 Q 541 849 535 843 Q 528 833 512 833 Z "></path><path fill="rgb(0,0,0)" stroke="rgb(0,0,0)" stroke-width="1" opacity="0.00784313725490196" d="M 625.5 812 L 639.5 812 L 650.5 815 Q 662 819.5 669 828.5 L 678 846.5 L 679 865.5 Q 675.3 885.3 661.5 895 L 643.5 904 L 626.5 905 Q 605.1 901.4 595 886.5 L 588 872.5 L 586 853.5 L 588 843.5 L 593 832.5 L 603.5 821 L 609.5 817 L 625.5 812 Z M 630 833 L 625 834 L 616 839 L 609 849 L 607 857 L 609 868 L 613 875 Q 618 882 630 884 Q 643 884 650 877 Q 656 872 658 863 L 658 855 L 654 845 Q 647 833 630 833 Z "></path><path fill="rgb(0,0,0)" stroke="rgb(0,0,0)" stroke-width="1" opacity="0.00784313725490196" d="M 742.5 812 L 755.5 812 L 766.5 815 Q 778 819.5 785 828.5 L 793 842.5 L 795 851.5 L 795 865.5 Q 791 886 776.5 896 L 759.5 904 L 742.5 905 Q 724 901.5 714 889.5 Q 702.5 878 702 855.5 L 704 844.5 L 707 836.5 L 720.5 821 L 726.5 817 L 742.5 812 Z M 746 833 L 733 839 L 724 852 L 724 865 L 729 874 Q 735 881 746 884 L 753 884 L 763 880 Q 771 874 774 864 L 774 854 L 770 844 Q 763 833 746 833 Z "></path><path fill="rgb(0,0,0)" stroke="rgb(0,0,0)" stroke-width="1" opacity="0.00784313725490196" d="M 315.5 924 L 733.5 924 L 747.5 928 L 760 937.5 Q 766.2 944.3 769 954.5 L 770 969.5 Q 766.9 986.9 755.5 996 Q 747.5 1003.5 734.5 1006 L 314.5 1006 Q 300.1 1002.9 292 993.5 Q 285.4 986.6 282 976.5 Q 279.3 968.2 281 955.5 Q 284.2 941.7 293.5 934 Q 301.7 926.2 315.5 924 Z M 318 945 L 309 949 L 302 959 Q 300 972 306 978 Q 310 983 318 985 L 732 985 L 739 982 Q 746 977 749 967 Q 749 959 746 955 Q 741 947 732 945 L 318 945 Z "></path><path fill="rgb(0,0,0)" stroke="rgb(0,0,0)" stroke-width="1" opacity="0.996078431372549" d="M 241.5 0 L 659.5 0 L 660 1.5 L 658 5.5 L 658 147.5 Q 660.5 163 671.5 170 L 683.5 175 L 828.5 175 L 832.5 173 L 833 447 L 217 447 L 217 25.5 Q 219.6 11.6 229.5 5 L 241.5 0 Z M 400 274 L 397 275 Q 391 277 390 284 L 391 289 L 399 295 L 641 295 L 644 293 L 647 289 L 648 285 L 646 279 L 639 274 L 400 274 Z M 400 350 L 397 351 Q 391 353 390 360 L 392 367 L 398 371 L 641 371 L 645 369 L 648 362 L 646 355 L 639 350 L 400 350 Z "></path><path fill="rgb(0,0,0)" stroke="rgb(0,0,0)" stroke-width="1" opacity="0.996078431372549" d="M 685.5 0 L 694.5 1 L 831 137.5 L 832 146.5 L 828 153 L 824.5 154 L 686.5 154 L 680 148.5 L 679 145.5 L 679 9.5 L 682 2 L 685.5 0 Z "></path><path fill="rgb(0,0,0)" stroke="rgb(0,0,0)" stroke-width="1" opacity="0.996078431372549" d="M 1004.5 333 L 1012.5 333 L 1024.5 336 Q 1038 341.5 1046 352.5 L 1054 369.5 L 1055 383.5 L 1053 393.5 L 1049 402.5 L 1037.5 416 L 1019 425.5 L 1019 535.5 L 1013.5 543 L 1011.5 544 L 975 544 L 975 577.5 L 969.5 587 L 963.5 589 L 909 589 Q 910.8 599 904.5 602 L 902.5 603 L 147.5 603 L 141 598.5 L 139 594.5 L 139 576 L 112 576 L 112 588.5 L 106.5 596 L 104.5 597 L 34.5 597 L 28 594 L 25 587.5 L 25 484.5 L 29.5 477 L 33.5 475 L 105.5 475 L 110 478.5 L 112 482.5 L 112 498 L 139 498 L 139 477.5 L 143.5 471 L 148.5 468 L 899.5 468 L 907 472.5 Q 910.5 476.7 909 485 L 966.5 485 L 973 489.5 L 975 495.5 L 975 523 L 997.5 523 L 998 522.5 L 998 425 Q 980.1 421.8 971 408.5 L 964 395.5 L 962 387.5 L 962 372.5 Q 965.5 354 977.5 344 L 988.5 337 L 1004.5 333 Z "></path><path fill="rgb(0,0,0)" stroke="rgb(0,0,0)" stroke-width="1" opacity="0.996078431372549" d="M 129 625 L 922 625 L 922 975.5 L 917 1001.5 L 909 1020.5 Q 898.3 1040.3 881.5 1054 Q 869.8 1064.3 854.5 1071 L 840.5 1076 L 820.5 1080 L 227.5 1080 L 207.5 1076 L 189.5 1069 Q 168.6 1058 154 1040.5 L 138 1014.5 L 132 997.5 L 129 981.5 L 129 625 Z M 214 658 Q 201 660 193 667 Q 182 676 179 692 L 179 1012 L 182 1024 L 186 1031 Q 194 1042 211 1046 L 839 1046 Q 850 1043 858 1036 Q 866 1028 869 1015 L 869 692 L 866 681 L 861 673 L 849 662 L 835 658 L 214 658 Z "></path><path fill="rgb(0,0,0)" stroke="rgb(0,0,0)" stroke-width="1" opacity="0.996078431372549" d="M 216.5 679 L 832.5 679 L 839.5 681 L 846 687.5 L 848 693.5 L 848 1011.5 L 841.5 1022 L 835.5 1025 L 213.5 1025 L 205 1019.5 L 201 1013.5 L 200 1008.5 L 200 695.5 Q 201.8 686.3 208.5 682 L 216.5 679 Z M 296 698 L 284 701 L 274 706 Q 257 717 253 741 L 254 758 L 263 776 Q 273 789 293 793 L 307 793 L 315 791 L 328 784 Q 342 773 346 753 Q 347 730 337 718 Q 329 706 316 701 L 304 698 L 296 698 Z M 414 698 L 402 701 L 391 707 L 378 721 L 373 732 L 371 742 Q 370 764 381 776 Q 391 789 411 793 Q 434 794 446 784 Q 460 774 464 754 Q 465 730 455 718 Q 448 707 437 702 L 428 699 L 414 698 Z M 530 698 L 518 701 L 507 707 L 494 721 L 489 732 L 487 742 Q 486 764 497 776 Q 507 789 527 793 Q 550 794 562 784 Q 576 774 580 754 L 580 741 L 578 732 Q 574 720 567 712 L 553 702 L 544 699 L 530 698 Z M 648 698 L 636 701 L 625 707 L 611 723 L 607 733 L 605 743 L 607 761 L 616 777 Q 626 789 645 793 Q 668 795 680 784 Q 694 774 698 754 L 697 735 Q 694 721 685 713 Q 673 698 648 698 Z M 764 698 L 752 701 L 741 707 L 727 723 L 723 733 L 721 744 Q 721 765 732 777 Q 742 789 761 793 Q 785 795 797 784 Q 810 774 814 755 L 813 734 L 805 717 Q 794 698 764 698 Z M 275 812 Q 259 815 250 823 Q 237 833 234 853 Q 233 876 244 888 Q 254 901 275 905 Q 298 906 310 895 Q 323 885 327 865 Q 328 838 315 827 Q 307 818 296 814 L 288 812 L 275 812 Z M 392 812 L 383 814 L 369 821 Q 353 831 350 853 Q 349 877 361 889 Q 372 901 393 905 L 410 904 L 428 895 Q 441 885 445 865 L 444 847 Q 441 835 434 828 Q 427 819 417 815 L 406 812 L 392 812 Z M 509 812 Q 492 815 483 824 L 472 839 L 468 854 L 468 863 L 470 873 L 479 889 Q 489 901 509 905 L 526 904 L 544 895 Q 557 885 561 865 L 560 847 L 551 829 Q 544 820 533 815 L 522 812 L 509 812 Z M 626 812 L 610 817 L 604 821 L 593 833 L 588 844 L 586 854 L 588 873 L 595 887 Q 605 901 627 905 L 644 904 L 662 895 Q 675 885 679 866 L 678 847 L 669 829 Q 662 819 651 815 L 640 812 L 626 812 Z M 743 812 L 727 817 L 721 821 L 707 837 L 704 845 L 702 856 Q 703 878 714 890 Q 724 901 743 905 L 760 904 L 777 896 Q 791 886 795 866 L 795 852 L 793 843 L 785 829 Q 778 819 767 815 L 756 812 L 743 812 Z M 316 924 Q 302 926 294 934 Q 284 942 281 956 Q 279 968 282 977 Q 285 987 292 994 Q 300 1003 315 1006 L 735 1006 Q 747 1003 756 996 Q 767 987 770 970 L 769 955 Q 766 944 760 938 L 748 928 L 734 924 L 316 924 Z "></path><path fill="rgb(0,0,0)" stroke="rgb(0,0,0)" stroke-width="1" opacity="0.996078431372549" d="M 297.5 719 L 309.5 721 L 318 727.5 Q 325.4 734.6 325 749.5 Q 322.6 762.1 313.5 768 L 304.5 772 L 295.5 772 Q 286.1 769.9 281 763.5 Q 273.4 757.1 274 742.5 Q 277 730.5 285.5 724 L 297.5 719 Z "></path><path fill="rgb(0,0,0)" stroke="rgb(0,0,0)" stroke-width="1" opacity="0.996078431372549" d="M 415.5 719 L 424.5 720 Q 432.3 723.3 437 729.5 Q 443.8 736.2 443 750.5 Q 440.4 759.4 434.5 765 Q 429.7 770.2 421.5 772 L 412.5 772 Q 402.3 769.3 397 761.5 Q 391.7 755.3 392 743.5 L 396 731.5 L 401.5 725 L 407.5 721 L 415.5 719 Z "></path><path fill="rgb(0,0,0)" stroke="rgb(0,0,0)" stroke-width="1" opacity="0.996078431372549" d="M 531.5 719 Q 546.9 719.1 553 728.5 Q 559.6 735.9 559 750.5 Q 556.4 762.4 547.5 768 L 538.5 772 L 529.5 772 Q 517.9 768.6 512 759.5 Q 508 753.5 508 743.5 Q 510.6 730.6 519.5 724 L 531.5 719 Z "></path><path fill="rgb(0,0,0)" stroke="rgb(0,0,0)" stroke-width="1" opacity="0.996078431372549" d="M 649.5 719 Q 665.6 719.9 672 730.5 Q 677.7 737.3 677 750.5 Q 674.6 760.6 667.5 766 L 655.5 772 L 646.5 772 Q 636.3 769.3 631 761.5 L 627 753.5 L 626 744.5 L 629 733.5 L 638.5 723 L 649.5 719 Z "></path><path fill="rgb(0,0,0)" stroke="rgb(0,0,0)" stroke-width="1" opacity="0.996078431372549" d="M 765.5 719 L 775.5 720 Q 783.3 723.3 788 729.5 L 793 741.5 L 793 751.5 Q 791.1 760.1 785.5 765 Q 780.7 770.2 772.5 772 L 763.5 772 Q 752.6 768.9 747 760.5 Q 740.8 754.2 743 739.5 L 751.5 726 L 765.5 719 Z "></path><path fill="rgb(0,0,0)" stroke="rgb(0,0,0)" stroke-width="1" opacity="0.996078431372549" d="M 277.5 833 L 288.5 834 Q 295.8 836.2 300 841.5 Q 306.6 847.9 306 861.5 Q 303.6 874.1 294.5 880 L 283.5 884 L 276.5 884 Q 265.4 881.6 260 873.5 Q 254.5 867 255 854.5 Q 257 843.5 264.5 838 L 277.5 833 Z "></path><path fill="rgb(0,0,0)" stroke="rgb(0,0,0)" stroke-width="1" opacity="0.996078431372549" d="M 395.5 833 Q 413.3 833.3 420 844.5 L 424 854.5 L 424 862.5 Q 420.6 874.1 411.5 880 L 401.5 884 L 394.5 884 Q 382.5 881 376 872.5 Q 370.7 866.3 371 854.5 Q 373.4 844.4 380.5 839 Q 386.5 834.5 395.5 833 Z "></path><path fill="rgb(0,0,0)" stroke="rgb(0,0,0)" stroke-width="1" opacity="0.996078431372549" d="M 511.5 833 Q 528.3 832.7 535 842.5 Q 540.7 849.3 540 862.5 Q 537.1 874.1 528.5 880 L 518.5 884 L 511.5 884 Q 500.5 882 495 874.5 Q 488.7 868.3 489 855.5 Q 491 845 497.5 839 L 506.5 834 L 511.5 833 Z "></path><path fill="rgb(0,0,0)" stroke="rgb(0,0,0)" stroke-width="1" opacity="0.996078431372549" d="M 629.5 833 Q 647.5 833 654 844.5 L 658 854.5 L 658 862.5 Q 655.9 871.9 649.5 877 Q 643.3 884.3 629.5 884 Q 618.5 882 613 874.5 L 609 867.5 L 607 856.5 L 609 848.5 L 615.5 839 L 624.5 834 L 629.5 833 Z "></path><path fill="rgb(0,0,0)" stroke="rgb(0,0,0)" stroke-width="1" opacity="0.996078431372549" d="M 745.5 833 Q 763.4 832.6 770 843.5 L 774 853.5 L 774 863.5 Q 770.9 874.4 762.5 880 L 752.5 884 L 745.5 884 Q 734.6 881.4 729 873.5 L 724 864.5 L 724 851.5 L 732.5 839 L 745.5 833 Z "></path><path fill="rgb(0,0,0)" stroke="rgb(0,0,0)" stroke-width="1" opacity="0.996078431372549" d="M 317.5 945 L 731.5 945 Q 741.4 947.1 746 954.5 Q 749.2 958.8 749 966.5 Q 746.3 976.8 738.5 982 L 731.5 985 L 317.5 985 Q 309.9 983.2 306 977.5 Q 300.2 971.8 302 958.5 L 308.5 949 L 317.5 945 Z "></path></symbol></svg>